<?xml version="1.0" encoding="UTF-8" standalone="no"?>
<!DOCTYPE svg PUBLIC "-//W3C//DTD SVG 1.1//EN" "http://www.w3.org/Graphics/SVG/1.1/DTD/svg11.dtd">
<svg width="100%" height="100%" viewBox="0 0 200 200" version="1.1" xmlns="http://www.w3.org/2000/svg" xmlns:xlink="http://www.w3.org/1999/xlink" xml:space="preserve" xmlns:serif="http://www.serif.com/" style="fill-rule:evenodd;clip-rule:evenodd;stroke-linejoin:round;stroke-miterlimit:2;">
    <g transform="matrix(0.988165,-0.153393,0.153393,0.988165,-12.4159,10.9218)">
        <g transform="matrix(0.144826,0,0,0.144826,-22.4643,19.5093)">
            <path d="M938,450C938.06,495.754 928.798,541.044 910.78,583.1L909.66,585.68C847.145,727.9 694.377,809.715 541.35,782.93C539.32,782.57 537.293,782.197 535.27,781.81C514.363,777.757 493.891,771.72 474.13,763.78C470.92,762.49 467.733,761.153 464.57,759.77C462.41,758.83 460.25,757.86 458.11,756.86C338.792,701.56 262.07,581.51 262,450C262,263.33 413.33,112 600,112C786.67,112 938,263.33 938,450Z" style="fill:rgb(168,112,8);fill-rule:nonzero;"/>
        </g>
        <g transform="matrix(0.144826,0,0,0.144826,-22.4643,19.5093)">
            <path d="M541.35,782.93C539.32,782.57 537.293,782.197 535.27,781.81C533.95,743.5 529.42,664.87 513.97,582.52C505.52,537.45 493.79,491.25 477.52,449.95C471.946,435.66 465.579,421.691 458.45,408.11C442.01,377.06 422.07,350.92 397.89,333.21L401.45,328.35C421.56,343.09 439.633,363.783 455.67,390.43C460.48,398.41 465.1,406.923 469.53,415.97C474.28,425.65 478.81,435.927 483.12,446.8C485.87,453.72 488.527,460.88 491.09,468.28C502.25,500.41 511.737,537.07 519.55,578.26C521.28,587.36 522.927,596.683 524.49,606.23C536.6,680.2 540.25,748.59 541.35,782.93Z" style="fill-opacity:0.2;fill-rule:nonzero;"/>
        </g>
        <g transform="matrix(0.144826,0,0,0.144826,-22.4643,19.5093)">
            <path d="M464.57,759.77C462.41,758.83 460.25,757.86 458.11,756.86C456.02,734.16 452.18,706 445.16,679.27C442.085,667.265 438.138,655.5 433.35,644.07C425.34,625.32 414.97,609.38 401.56,599.55L405.12,594.7C419.16,604.98 429.99,621.23 438.36,640.24C447.79,661.66 454.08,686.59 458.27,710.41C461.38,728.1 463.34,745.19 464.57,759.77Z" style="fill-opacity:0.2;fill-rule:nonzero;"/>
        </g>
        <g transform="matrix(0.144826,0,0,0.144826,15.4801,35.7298)">
            <circle cx="102.262" cy="190.982" r="30.089" style="fill-opacity:0.2;"/>
        </g>
        <g transform="matrix(0.144826,0,0,0.144826,15.4801,35.7298)">
            <circle cx="111.951" cy="449.991" r="30.089" style="fill-opacity:0.2;"/>
        </g>
        <g transform="matrix(0.144826,0,0,0.144826,-22.4643,19.5093)">
            <path d="M483.714,353.521C477.334,389.519 491.419,422.114 491.419,422.114C491.419,422.114 515.849,396.345 522.229,360.348C528.61,324.351 514.525,291.756 514.525,291.756C514.525,291.756 490.095,317.524 483.714,353.521Z" style="fill-opacity:0.2;fill-rule:nonzero;"/>
        </g>
        <g transform="matrix(0.144826,0,0,0.144826,-22.4643,19.5093)">
            <path d="M383.718,438.971C418.053,451.526 452.554,443.469 452.554,443.469C452.554,443.469 431.388,415.056 397.053,402.501C362.718,389.946 328.217,398.003 328.217,398.003C328.217,398.003 349.383,426.416 383.718,438.971Z" style="fill-opacity:0.2;fill-rule:nonzero;"/>
        </g>
        <g transform="matrix(0.144826,0,0,0.144826,-22.4643,19.5093)">
            <path d="M377.895,668.333C401.961,677.133 426.178,671.392 426.178,671.392C426.178,671.392 411.377,651.384 387.311,642.584C363.245,633.784 339.028,639.525 339.028,639.525C339.028,639.525 353.829,659.533 377.895,668.333Z" style="fill-opacity:0.2;fill-rule:nonzero;"/>
        </g>
        <g transform="matrix(0.144826,0,0,0.144826,15.4801,35.7298)">
            <circle cx="337.306" cy="281.079" r="131.77" style="fill:rgb(208,205,225);"/>
        </g>
        <g transform="matrix(0.144826,0,0,0.144826,-22.4643,19.5093)">
            <path d="M547.833,493.965C547.833,493.965 564.305,572.204 564.305,580.439C564.305,588.675 642.543,625.735 642.543,625.735L712.546,613.382L737.253,539.261C737.253,539.261 696.075,477.494 696.075,452.787L547.833,493.965Z" style="fill:rgb(208,205,225);fill-rule:nonzero;"/>
        </g>
        <g transform="matrix(0.144826,0,0,0.144826,-22.4643,19.5093)">
            <path d="M910.78,583.1L909.66,585.68C847.145,727.9 694.377,809.715 541.35,782.93C539.32,782.57 537.293,782.197 535.27,781.81C514.363,777.757 493.891,771.72 474.13,763.78C470.92,762.49 467.733,761.153 464.57,759.77C462.41,758.83 460.25,757.86 458.11,756.86C438.713,747.874 420.213,737.065 402.86,724.58L387.24,679.27L396.02,672.57L414.08,658.78L433.35,644.07L438.36,640.24L513.97,582.52L519.55,578.26L558.85,548.26L558.86,548.25C558.86,548.25 601.36,617.5 663.13,596.91C724.9,576.32 723.55,517.28 723.55,517.28L910.78,583.1Z" style="fill:rgb(47,46,65);fill-rule:nonzero;"/>
        </g>
        <g transform="matrix(0.144826,0,0,0.144826,-22.4643,19.5093)">
            <path d="M485.035,286.916C485.035,286.916 526.872,196.27 607.059,217.188C687.245,238.107 732.568,269.484 736.055,300.862C739.541,332.239 734.311,379.305 734.311,379.305C734.311,379.305 725.595,314.807 669.813,328.753C614.031,342.698 526.872,332.239 526.872,332.239L512.926,457.748C512.926,457.748 497.238,435.087 479.806,449.033C462.374,462.978 429.253,314.807 485.035,286.916Z" style="fill:rgb(47,46,65);fill-rule:nonzero;"/>
        </g>
        <g transform="matrix(0.144826,0,0,0.144826,-22.4643,19.5093)">
            <path d="M474.13,763.78C470.92,762.49 467.733,761.153 464.57,759.77C462.41,758.83 460.25,757.86 458.11,756.86C426.029,741.984 396.474,722.177 370.52,698.16C379.71,685.64 387.24,679.27 387.24,679.27L449.01,679.27L458.27,710.41L474.13,763.78Z" style="fill:rgb(47,46,65);fill-rule:nonzero;"/>
        </g>
        <g transform="matrix(0.144826,0,0,0.144826,-22.4643,19.5093)">
            <path d="M856.67,576.32L909.66,585.68C895.479,617.985 876.327,647.871 852.9,674.25L856.67,576.32Z" style="fill:rgb(47,46,65);fill-rule:nonzero;"/>
        </g>
    </g>
    <g transform="matrix(0.153502,0.0515334,-0.0515334,0.153502,131.892,110.786)">
        <g transform="matrix(1,0,0,1,-338,-338)">
            <clipPath id="_clip1">
                <rect x="0" y="0" width="676" height="676"/>
            </clipPath>
            <g clip-path="url(#_clip1)">
                <g transform="matrix(1,0,0,1,-262,-112)">
                    <path d="M938,450C938.053,493.419 929.716,536.443 913.45,576.7C913.41,576.79 913.38,576.87 913.34,576.96L913.34,576.97C902.406,603.927 888.023,629.352 870.55,652.61C867.18,657.11 863.703,661.517 860.12,665.83C858.81,667.41 857.48,668.98 856.15,670.53C849.3,678.48 842.093,686.097 834.53,693.38C832.77,695.08 830.99,696.76 829.19,698.42C828.77,698.81 828.35,699.19 827.93,699.58C819.121,707.63 809.891,715.207 800.28,722.28C793.83,727.05 787.21,731.58 780.42,735.87C778.93,736.82 777.43,737.753 775.92,738.67C773.3,740.27 770.657,741.833 767.99,743.36C764.51,745.36 760.987,747.297 757.42,749.17C755.98,749.94 754.53,750.68 753.08,751.42C750.96,752.51 748.83,753.56 746.68,754.59C746.31,754.77 745.94,754.95 745.57,755.12C744.17,755.8 742.75,756.46 741.33,757.12C722.837,765.65 703.603,772.475 683.87,777.51C683.76,777.54 683.66,777.56 683.55,777.59C682.26,777.92 680.96,778.24 679.66,778.55C678.69,778.79 677.71,779.02 676.73,779.24C676.609,779.279 676.485,779.309 676.36,779.33C674.35,779.8 672.34,780.25 670.31,780.66C669.17,780.9 668.03,781.14 666.89,781.37C666.2,781.52 665.5,781.65 664.81,781.78C663.94,781.95 663.08,782.11 662.21,782.28C661.73,782.38 661.25,782.46 660.76,782.54C659.66,782.74 658.56,782.94 657.47,783.13C655.61,783.45 653.73,783.76 651.86,784.04C650.5,784.25 649.15,784.45 647.79,784.64C646.19,784.87 644.59,785.08 642.98,785.28C642.54,785.35 642.1,785.4 641.66,785.45C641.09,785.52 640.52,785.59 639.95,785.66C638.8,785.8 637.65,785.93 636.49,786.05C635.89,786.12 635.3,786.18 634.7,786.24C633.56,786.36 632.42,786.47 631.28,786.57C629.81,786.71 628.34,786.83 626.86,786.95C625.06,787.09 623.27,787.22 621.46,787.33C620.3,787.4 619.14,787.47 617.97,787.53C614.99,787.69 612.01,787.8 609.01,787.88C607.52,787.92 606.02,787.95 604.52,787.97L604.49,787.97C603,787.99 601.5,788 600,788C584.799,788.006 569.615,786.991 554.55,784.96C543.5,783.48 532.627,781.473 521.93,778.94C521.5,778.84 521.07,778.74 520.65,778.63C519.57,778.38 518.5,778.11 517.43,777.84C516.48,777.6 515.54,777.35 514.59,777.1C490.106,770.729 466.422,761.607 443.99,749.91C443.88,749.85 443.76,749.79 443.65,749.73C443,749.39 442.36,749.06 441.72,748.71C440.31,747.97 438.907,747.217 437.51,746.45C429.56,742.08 421.813,737.407 414.27,732.43C412.33,731.16 410.41,729.87 408.51,728.56C407.9,728.14 407.3,727.72 406.7,727.3C406.07,726.86 405.44,726.42 404.82,725.98C403.17,724.81 401.53,723.627 399.9,722.43C393.15,717.47 386.6,712.267 380.25,706.82C357.743,687.544 337.854,665.406 321.09,640.97C315.24,632.45 309.78,623.657 304.71,614.59C276.615,564.293 261.907,507.612 262,450C262,263.33 413.33,112 600,112C786.67,112 938,263.33 938,450Z" style="fill:rgb(168,112,8);fill-rule:nonzero;"/>
                </g>
                <g transform="matrix(1,0,0,1,-262,-112)">
                    <path d="M654.35,778.63C655.43,778.38 656.5,778.11 657.57,777.84C658.52,777.6 659.46,777.35 660.41,777.1C660.46,775.11 660.53,772.92 660.6,770.55C661.19,751.99 662.58,722.11 665.86,686.11C666.04,684.18 666.22,682.237 666.4,680.28C667.57,668.08 668.94,655.25 670.58,641.95C670.63,641.51 670.69,641.08 670.74,640.64C672.07,629.86 673.58,618.79 675.28,607.51C676.47,599.62 677.757,591.643 679.14,583.58C679.24,583.02 679.34,582.45 679.44,581.89C679.84,579.56 680.25,577.24 680.67,574.9C681.84,568.39 683.09,561.84 684.4,555.29C689.01,532.25 694.5,509.07 701.05,486.52C707.704,463.134 715.898,440.214 725.58,417.91C733.089,400.584 742.034,383.916 752.32,368.08C752.47,367.85 752.62,367.63 752.77,367.4C765.92,347.59 780.95,330.78 798.11,318.21L794.55,313.35C778.11,325.4 763.03,341.433 749.31,361.45C749.24,361.55 749.18,361.64 749.11,361.74C738.793,377.039 729.787,393.184 722.19,410C712.017,432.494 703.436,455.674 696.51,479.37C689.95,501.39 684.067,525.247 678.86,550.94C677.03,559.99 675.283,569.263 673.62,578.76C673.34,580.38 673.06,582 672.78,583.63C672.78,583.65 672.77,583.68 672.77,583.7C672.34,586.2 671.93,588.7 671.51,591.23C670.47,597.6 669.49,603.92 668.57,610.19C667.15,619.85 665.867,629.343 664.72,638.67C664.34,641.75 663.973,644.807 663.62,647.84C663.12,652.12 662.647,656.343 662.2,660.51C661.57,666.31 660.993,671.987 660.47,677.54L660.32,679.07C660.24,679.95 660.16,680.83 660.08,681.7C656.02,725.49 654.75,760.86 654.35,778.63Z" style="fill-opacity:0.2;fill-rule:nonzero;"/>
                </g>
                <g transform="matrix(1,0,0,1,-262,-112)">
                    <path d="M731.01,749.91C731.12,749.85 731.24,749.79 731.35,749.73C733.41,748.66 735.45,747.57 737.49,746.45C738.16,738.47 739.06,729.7 740.24,720.48C740.49,718.58 740.74,716.65 741.02,714.71C741.16,713.67 741.31,712.62 741.46,711.56C742.64,703.44 744.04,695.06 745.72,686.64C752.55,652.28 763.89,617.16 782.72,595.48C783.73,594.31 784.76,593.19 785.83,592.1C788.482,589.345 791.362,586.819 794.44,584.55L790.88,579.7C786.583,582.878 782.629,586.494 779.08,590.49C777.83,591.88 776.61,593.327 775.42,594.83C758.09,616.64 747.27,648.93 740.53,680.9C738.77,689.24 737.29,697.57 736.03,705.68C735.71,707.8 735.403,709.9 735.11,711.98C733.16,725.72 731.87,738.7 731.01,749.91Z" style="fill-opacity:0.2;fill-rule:nonzero;"/>
                </g>
                <circle cx="569.738" cy="175.982" r="30.089" style="fill-opacity:0.2;"/>
                <circle cx="560.049" cy="434.991" r="30.089" style="fill-opacity:0.2;"/>
                <g transform="matrix(1,0,0,1,-262,-112)">
                    <path d="M712.286,338.521C718.666,374.519 704.581,407.114 704.581,407.114C704.581,407.114 680.151,381.345 673.771,345.348C667.39,309.351 681.475,276.756 681.475,276.756C681.475,276.756 705.905,302.524 712.286,338.521Z" style="fill-opacity:0.2;fill-rule:nonzero;"/>
                </g>
                <g transform="matrix(1,0,0,1,-262,-112)">
                    <path d="M812.282,423.971C777.947,436.526 743.446,428.469 743.446,428.469C743.446,428.469 764.612,400.056 798.947,387.501C833.282,374.946 867.783,383.003 867.783,383.003C867.783,383.003 846.617,411.416 812.282,423.971Z" style="fill-opacity:0.2;fill-rule:nonzero;"/>
                </g>
                <g transform="matrix(1,0,0,1,-262,-112)">
                    <path d="M818.105,653.333C794.039,662.133 769.822,656.392 769.822,656.392C769.822,656.392 784.623,636.384 808.689,627.584C832.755,618.784 856.972,624.525 856.972,624.525C856.972,624.525 842.171,644.533 818.105,653.333Z" style="fill-opacity:0.2;fill-rule:nonzero;"/>
                </g>
                <g transform="matrix(1,0,0,1,-262,-112)">
                    <path d="M701.96,648.27L703.18,648.9C703.06,650.2 702.77,651 701.96,648.27Z" style="fill:rgb(47,46,65);fill-rule:nonzero;"/>
                </g>
                <g transform="matrix(1,0,0,1,-262,-112)">
                    <path d="M703.57,648.69C703.58,648.83 703.6,648.98 703.61,649.12L703.18,648.9C703.19,648.77 703.2,648.63 703.22,648.49C703.32,646.74 703.2,644.67 703.57,648.69Z" style="fill:rgb(47,46,65);fill-rule:nonzero;"/>
                </g>
                <circle cx="311.683" cy="324.641" r="164.209" style="fill:rgb(47,46,65);"/>
                <circle cx="325.2" cy="382.713" r="99.444" style="fill:rgb(208,205,225);"/>
                <g transform="matrix(1,0,0,1,-262,-112)">
                    <path d="M814.27,685.31L814.15,685.34L791.02,690.89L742.86,702.45L736.29,704.03L663.05,721.6L656.83,723.1L479.14,765.74C467.128,761.145 455.392,755.86 443.99,749.91C443.88,749.85 443.76,749.79 443.65,749.73C443,749.39 442.36,749.06 441.72,748.71C440.31,747.97 438.907,747.217 437.51,746.45C429.56,742.08 421.813,737.407 414.27,732.43C412.33,731.16 410.41,729.87 408.51,728.56C407.9,728.14 407.3,727.72 406.7,727.3C406.07,726.86 405.44,726.42 404.82,725.98C403.17,724.81 401.53,723.627 399.9,722.43C417.16,691.06 458.26,670.21 499.36,658.8C530.38,650.18 537.2,621.85 536.61,596.64C536.46,590.89 535.972,585.153 535.15,579.46C533.897,570.399 531.904,561.456 529.19,552.72L628.64,556.04L638.9,579.68C638.619,582.277 638.529,584.89 638.63,587.5C639.41,606.89 651.38,619.43 666.15,627.52C668.07,628.57 670.04,629.55 672.04,630.46C696.26,641.47 724.77,642.22 724.77,642.22C733.451,641.26 742.221,641.425 750.86,642.71C752.96,643.03 755,643.413 756.98,643.86C768.54,646.444 779.461,651.331 789.09,658.23C792.768,660.846 796.247,663.731 799.5,666.86C805.281,672.271 810.256,678.484 814.27,685.31Z" style="fill:rgb(208,205,225);fill-rule:nonzero;"/>
                </g>
                <g transform="matrix(1,0,0,1,-262,-112)">
                    <path d="M829.19,698.42C828.77,698.81 828.35,699.19 827.93,699.58C819.121,707.63 809.891,715.207 800.28,722.28C793.83,727.05 787.21,731.58 780.42,735.87C778.93,736.82 777.43,737.753 775.92,738.67C773.3,740.27 770.657,741.833 767.99,743.36C764.51,745.36 760.987,747.297 757.42,749.17C755.98,749.94 754.53,750.68 753.08,751.42C750.96,752.51 748.83,753.56 746.68,754.59C746.31,754.77 745.94,754.95 745.57,755.12L741.34,751.61L801.01,678.68C801.01,678.68 805,678.68 814.15,685.34C819.207,689.104 823.986,693.228 828.45,697.68C828.69,697.93 828.94,698.17 829.19,698.42Z" style="fill:rgb(208,205,225);fill-rule:nonzero;"/>
                </g>
                <g transform="matrix(1,0,0,1,-262,-112)">
                    <path d="M828.49,697.74C828.356,698.368 828.168,698.984 827.93,699.58C819.121,707.63 809.891,715.207 800.28,722.28C791.941,725.286 783.29,727.342 774.49,728.41C765.69,729.478 775.24,732.17 775.92,738.67C773.3,740.27 770.657,741.833 767.99,743.36C764.51,745.36 760.987,747.297 757.42,749.17C755.98,749.94 754.53,750.68 753.08,751.42C750.96,752.51 748.83,753.56 746.68,754.59C746.31,754.77 745.94,754.95 745.57,755.12C744.17,755.8 742.75,756.46 741.33,757.12C722.837,765.65 703.603,772.475 683.87,777.51C683.76,777.54 683.66,777.56 683.55,777.59C682.26,777.92 680.96,778.24 679.66,778.55C678.69,778.79 677.71,779.02 676.73,779.24C676.609,779.279 676.485,779.309 676.36,779.33C674.35,779.8 672.34,780.25 670.31,780.66C669.17,780.9 668.03,781.14 666.89,781.37C666.2,781.52 665.5,781.65 664.81,781.78C663.94,781.95 663.08,782.11 662.21,782.28C661.73,782.38 661.25,782.46 660.76,782.54C659.66,782.74 658.56,782.94 657.47,783.13C655.61,783.45 653.73,783.76 651.86,784.04C650.5,784.25 649.15,784.45 647.79,784.64C646.19,784.87 644.59,785.08 642.98,785.28C642.54,785.35 642.1,785.4 641.66,785.45C641.09,785.52 640.52,785.59 639.95,785.66C638.8,785.8 637.65,785.93 636.49,786.05C635.89,786.12 635.3,786.18 634.7,786.24C633.56,786.36 632.42,786.47 631.28,786.57C629.81,786.71 628.34,786.83 626.86,786.95C625.06,787.09 623.27,787.22 621.46,787.33C620.3,787.4 619.14,787.47 617.97,787.53C614.99,787.69 612.01,787.8 609.01,787.88C607.52,787.92 606.02,787.95 604.52,787.97L604.49,787.97C603,787.99 601.5,788 600,788C584.799,788.006 569.615,786.991 554.55,784.96C543.5,783.48 532.627,781.473 521.93,778.94C521.5,778.84 521.07,778.74 520.65,778.63C519.57,778.38 518.5,778.11 517.43,777.84C516.48,777.6 515.54,777.35 514.59,777.1C490.106,770.729 466.422,761.607 443.99,749.91C443.88,749.85 443.76,749.79 443.65,749.73C443,749.39 442.36,749.06 441.72,748.71C496.61,735.92 583.35,715.75 658.62,698.47C660.73,697.99 662.827,697.51 664.91,697.03C692.71,690.65 718.75,684.71 740.78,679.74C743.06,679.23 745.293,678.73 747.48,678.24C771.15,672.92 789.53,668.88 799.5,666.86C802.187,666.246 804.904,665.769 807.64,665.43L828.45,697.68L828.49,697.74Z" style="fill:rgb(47,46,65);fill-rule:nonzero;"/>
                </g>
                <circle cx="161.449" cy="205.851" r="48.913" style="fill:rgb(47,46,65);"/>
                <circle cx="461.917" cy="191.876" r="48.913" style="fill:rgb(47,46,65);"/>
                <g transform="matrix(1,0,0,1,-262,-112)">
                    <path d="M671.51,282.913C671.513,258.055 690.467,236.952 715.182,234.289C713.418,234.096 711.645,234 709.871,234C683.038,234 660.958,256.08 660.958,282.913C660.958,309.746 683.038,331.827 709.871,331.827C711.645,331.827 713.418,331.73 715.182,331.537C690.467,328.875 671.513,307.772 671.51,282.913Z" style="fill:rgb(47,46,65);fill-rule:nonzero;"/>
                </g>
                <g transform="matrix(1,0,0,1,-262,-112)">
                    <path d="M368.796,357.416C351.401,339.658 350.17,311.32 365.96,292.12C354.176,301.388 347.283,315.577 347.283,330.569C347.283,357.402 369.364,379.482 396.197,379.482C410.84,379.482 424.736,372.907 434.021,361.583C414.503,376.978 386.196,375.17 368.796,357.416Z" style="fill:rgb(47,46,65);fill-rule:nonzero;"/>
                </g>
                <g transform="matrix(1,0,0,1,-262,-112)">
                    <path d="M573.683,359.777C515.796,359.777 468.869,387.151 468.869,420.919C468.869,436.028 478.301,449.837 493.872,460.504L514.05,445.884L508.562,468.788C510.839,469.844 513.164,470.865 515.589,471.809L545.732,436.641L545.732,479.845C554.975,481.326 564.322,482.066 573.683,482.06C631.57,482.06 678.497,454.686 678.497,420.919C678.497,387.151 631.57,359.777 573.683,359.777Z" style="fill:rgb(47,46,65);fill-rule:nonzero;"/>
                </g>
                <g transform="matrix(1,0,0,1,-262,-112)">
                    <path d="M675.003,303.876C675.003,303.876 667.407,338.814 714.878,352.79L675.003,303.876Z" style="fill:rgb(47,46,65);fill-rule:nonzero;"/>
                </g>
                <g transform="matrix(1,0,0,1,-262,-112)">
                    <path d="M468.869,310.235C468.869,310.235 486.338,349.296 433.931,366.765L468.869,310.235Z" style="fill:rgb(47,46,65);fill-rule:nonzero;"/>
                </g>
                <g transform="matrix(0.962977,-0.269583,0.269583,0.962977,-382.608,38.9896)">
                    <ellipse cx="489.413" cy="514.602" rx="8.287" ry="19.889" style="fill:rgb(208,205,225);"/>
                </g>
                <g transform="matrix(0.0614706,-0.998109,0.998109,0.0614706,-113.094,1042.41)">
                    <ellipse cx="688.302" cy="498.027" rx="19.889" ry="8.287" style="fill:rgb(208,205,225);"/>
                </g>
            </g>
        </g>
    </g>
</svg>
